<svg xmlns="http://www.w3.org/2000/svg" viewBox="0 0 64 64">
  <defs>
    <linearGradient id="bg" x1="0%" y1="0%" x2="100%" y2="100%">
      <stop offset="0%" stop-color="#0f766e"/>
      <stop offset="100%" stop-color="#155e75"/>
    </linearGradient>
  </defs>
  <!-- Rounded square background matching brand-chip style -->
  <rect width="64" height="64" rx="14" ry="14" fill="url(#bg)"/>
  <!--
    Bootstrap Icons bi-graph-up-arrow (viewBox 0 0 16 16)
    Scaled and centered: translate(8,8) scale(3)
  -->
  <g transform="translate(8,8) scale(3)" fill="white">
    <path fill-rule="evenodd" d="M0 0h1v15h15v1H0V0Zm10 3.5a.5.5 0 0 1 .5-.5h4a.5.5 0 0 1 .5.5v4a.5.5 0 0 1-1 0V4.9l-3.613 4.417a.5.5 0 0 1-.74.037L7.06 6.767l-3.656 5.027a.5.5 0 0 1-.808-.588l4-5.5a.5.5 0 0 1 .758-.06l2.609 2.61L13.445 4H10.5a.5.5 0 0 1-.5-.5Z"/>
  </g>
</svg>
